#!OML:ASF X:\für Bonn\!DataBase\2005_08_11_Bastian_Final\c3d\Bastian.ASF
:FULLY-SPECIFIED
:DEGREES
78
root -1.69676 8.76261 2.03399 163.376 -2.2549 -172.288
lowerback 30.7914 -0.0486919 4.44236
upperback 7.30158 -0.528313 1.84828
thorax -8.5907 -1.17601 -0.159423
lowerneck -8.06566 -5.92002 -3.35853
upperneck -8.95059 -8.26158 10.9265
head -0.827044 -4.58035 3.97842
rclavicle -4.07509e-015 3.29983e-014
rhumerus 70.519 11.8782 16.71
rradius 39.6366
rwrist -69.4837
rhand -48.957 -10.4169
rfingers 7.12502
rthumb -21.5877 -39.2336
lclavicle -4.07509e-015 3.29983e-014
lhumerus 71.947 -16.9732 -50.4041
lradius 32.9532
lwrist 41.0525
lhand -42.7857 22.4644
lfingers 7.12502
lthumb -15.652 51.8513
rfemur -50.2376 -10.4851 34.7065
rtibia 139.254
rfoot -49.1539 -24.5616
rtoes -8.34831
lfemur -49.0903 21.5613 -7.63224
ltibia 143.365
lfoot -52.2637 -12.1403
ltoes -18.5124
79
root -1.69999 8.81042 2.03664 163.387 -2.31228 -172.353
lowerback 30.8199 -0.00581544 4.31623
upperback 7.36985 -0.533341 1.8253
thorax -8.52749 -1.18225 -0.111236
lowerneck -8.10361 -5.90261 -3.48283
upperneck -9.04756 -8.23663 11.1407
head -0.838612 -4.57688 4.07956
rclavicle 8.24956e-015 2.46493e-014
rhumerus 70.5279 11.8854 16.1548
rradius 39.51
rwrist -69.1828
rhand -48.8861 -10.2458
rfingers 7.12502
rthumb -21.5197 -39.0703
lclavicle 8.24956e-015 2.46493e-014
lhumerus 72.046 -17.0364 -50.3862
lradius 32.9223
lwrist 40.6201
lhand -42.7266 22.4332
lfingers 7.12502
lthumb -15.5951 51.8245
rfemur -50.031 -10.3009 34.6016
rtibia 138.851
rfoot -49.2101 -24.6035
rtoes -8.31818
lfemur -49.0178 20.6795 -7.98703
ltibia 142.916
lfoot -51.9674 -12.1213
ltoes -18.3831
80
root -1.70346 8.86976 2.0402 163.418 -2.3458 -172.425
lowerback 30.814 0.0457946 4.17241
upperback 7.45006 -0.535975 1.81409
thorax -8.43427 -1.18769 -0.0414604
lowerneck -8.25076 -5.8881 -3.55656
upperneck -9.07903 -8.22196 11.2472
head -0.816606 -4.57287 4.12663
rclavicle -2.48481e-015 -1.11319e-014
rhumerus 70.5692 11.8729 15.7357
rradius 39.4264
rwrist -68.986
rhand -48.8267 -10.0299
rfingers 7.12502
rthumb -21.4626 -38.8609
lclavicle -2.48481e-015 -1.11319e-014
lhumerus 72.1157 -17.1212 -50.2885
lradius 32.8456
lwrist 40.1842
lhand -42.7353 22.3832
lfingers 7.12502
lthumb -15.6035 51.7738
rfemur -49.8067 -10.0632 34.5415
rtibia 138.343
rfoot -49.154 -24.9069
rtoes -8.81977
lfemur -48.9186 19.7607 -8.3748
ltibia 142.369
lfoot -51.644 -12.0806
ltoes -18.3306
81
root -1.70727 8.93803 2.04496 163.43 -2.39082 -172.469
lowerback 30.8328 0.0808785 4.08423
upperback 7.52725 -0.542655 1.79672
thorax -8.35578 -1.1966 -0.00853333
lowerneck -8.39196 -5.89221 -3.61278
upperneck -9.10028 -8.23252 11.3307
head -0.792109 -4.58057 4.16123
rclavicle -9.64106e-015 -6.75868e-015
rhumerus 70.5981 11.8872 15.5793
rradius 39.4213
rwrist -68.9516
rhand -48.8695 -9.79094
rfingers 7.12502
rthumb -21.5036 -38.6173
lclavicle -9.64106e-015 -6.75868e-015
lhumerus 72.2016 -17.1823 -50.0904
lradius 32.7533
lwrist 39.8279
lhand -42.7861 22.2112
lfingers 7.12502
lthumb -15.6524 51.598
rfemur -49.546 -9.90426 34.4871
rtibia 137.747
rfoot -49.0007 -25.2507
rtoes -9.37442
lfemur -48.7468 18.8124 -8.73067
ltibia 141.726
lfoot -51.3105 -12.0093
ltoes -18.2345
82
root -1.71093 9.01683 2.05128 163.472 -2.4198 -172.491
lowerback 30.8327 0.104696 4.00036
upperback 7.58213 -0.554873 1.7927
thorax -8.29396 -1.20599 0.0388966
lowerneck -8.50176 -5.88749 -3.68003
upperneck -9.13038 -8.22876 11.4004
head -0.777221 -4.58094 4.19533
rclavicle -9.93923e-016 -1.70955e-014
rhumerus 70.6886 11.9372 15.5542
rradius 39.4366
rwrist -68.9491
rhand -48.9429 -9.56538
rfingers 7.12502
rthumb -21.5742 -38.3837
lclavicle -9.93923e-016 -1.70955e-014
lhumerus 72.2792 -17.2894 -49.8683
lradius 32.659
lwrist 39.6643
lhand -42.9308 21.9191
lfingers 7.12502
lthumb -15.7917 51.2949
rfemur -49.2724 -9.71061 34.4229
rtibia 137.051
rfoot -48.8584 -25.4196
rtoes -9.64635
lfemur -48.6169 17.8167 -9.0853
ltibia 140.998
lfoot -50.887 -11.913
ltoes -18.2224
83
root -1.7136 9.10537 2.05963 163.514 -2.44526 -172.515
lowerback 30.8429 0.137073 3.91828
upperback 7.63926 -0.55679 1.77858
thorax -8.23426 -1.21095 0.0703269
lowerneck -8.66165 -5.89397 -3.72177
upperneck -9.10004 -8.243 11.4773
head -0.733093 -4.58721 4.22234
rclavicle -3.8763e-015 3.57812e-015
rhumerus 70.7469 11.9784 15.6036
rradius 39.4538
rwrist -68.9736
rhand -48.9827 -9.33782
rfingers 7.12502
rthumb -21.6124 -38.1517
lclavicle -3.8763e-015 3.57812e-015
lhumerus 72.3526 -17.3632 -49.4931
lradius 32.5326
lwrist 39.5007
lhand -43.0731 21.5279
lfingers 7.12502
lthumb -15.9288 50.8928
rfemur -48.9808 -9.45446 34.3309
rtibia 136.275
rfoot -48.7034 -25.4179
rtoes -9.69435
lfemur -48.454 16.7436 -9.4394
ltibia 140.171
lfoot -50.393 -11.8844
ltoes -17.9046
84
root -1.71647 9.2042 2.06924 163.548 -2.47849 -172.526
lowerback 30.8619 0.16207 3.84881
upperback 7.69806 -0.564312 1.7817
thorax -8.17661 -1.21971 0.116239
lowerneck -8.80202 -5.89971 -3.7803
upperneck -9.1045 -8.25321 11.5017
head -0.705962 -4.59152 4.23619
rclavicle 7.95139e-015 -1.98785e-015
rhumerus 70.8344 12.0202 15.5262
rradius 39.3933
rwrist -68.7824
rhand -48.9606 -9.24124
rfingers 7.12502
rthumb -21.5912 -38.0576
lclavicle 7.95139e-015 -1.98785e-015
lhumerus 72.416 -17.4436 -49.1592
lradius 32.4373
lwrist 39.5752
lhand -43.284 20.971
lfingers 7.12502
lthumb -16.1319 50.3197
rfemur -48.6314 -9.18925 34.2181
rtibia 135.383
rfoot -48.5384 -25.3216
rtoes -9.64102
lfemur -48.2779 15.652 -9.80209
ltibia 139.261
lfoot -49.8758 -11.7039
ltoes -17.9196
85
root -1.71951 9.3178 2.08014 163.605 -2.48752 -172.51
lowerback 30.8862 0.187733 3.78621
upperback 7.74113 -0.563981 1.79118
thorax -8.13915 -1.22384 0.162914
lowerneck -8.94604 -5.90038 -3.81439
upperneck -9.09826 -8.25957 11.535
head -0.675617 -4.59457 4.24828
rclavicle 1.95803e-014 2.94201e-014
rhumerus 70.9173 12.0549 15.2973
rradius 39.2834
rwrist -68.4298
rhand -48.8377 -9.21209
rfingers 7.12502
rthumb -21.4731 -38.0419
lclavicle 1.95803e-014 2.94201e-014
lhumerus 72.4539 -17.5102 -48.6813
lradius 32.2999
lwrist 39.5251
lhand -43.3897 20.428
lfingers 7.12502
lthumb -16.2336 49.7684
rfemur -48.2509 -8.87135 34.1259
rtibia 134.356
rfoot -48.2794 -25.1976
rtoes -9.64621
lfemur -48.0424 14.5035 -10.1272
ltibia 138.208
lfoot -49.2939 -11.6083
ltoes -17.7622
